<svg width="57" height="56" viewBox="0 0 57 56" fill="none" xmlns="http://www.w3.org/2000/svg">
<path d="M27.1001 20H20.1001C19.5697 20 19.061 20.2107 18.6859 20.5858C18.3108 20.9609 18.1001 21.4696 18.1001 22V36C18.1001 36.5304 18.3108 37.0391 18.6859 37.4142C19.061 37.7893 19.5697 38 20.1001 38H34.1001C34.6305 38 35.1392 37.7893 35.5143 37.4142C35.8894 37.0391 36.1001 36.5304 36.1001 36V29" stroke="black" stroke-width="2" stroke-linecap="round" stroke-linejoin="round"/>
<path d="M34.6001 18.5002C34.9979 18.1024 35.5375 17.8789 36.1001 17.8789C36.6627 17.8789 37.2023 18.1024 37.6001 18.5002C37.9979 18.8981 38.2214 19.4376 38.2214 20.0002C38.2214 20.5628 37.9979 21.1024 37.6001 21.5002L28.1001 31.0002L24.1001 32.0002L25.1001 28.0002L34.6001 18.5002Z" stroke="#005AE2" stroke-width="2" stroke-linecap="round" stroke-linejoin="round"/>
<circle cx="28.1001" cy="28" r="28" fill="#3284FF" fill-opacity="0.13"/>
</svg>
