<svg width="1011" height="1002" viewBox="0 0 1011 1002" fill="none" xmlns="http://www.w3.org/2000/svg">
<g opacity="0.5">
<path fill-rule="evenodd" clip-rule="evenodd" d="M386 670.107C329.583 647.4 251.503 685.114 220.5 643.197C191.689 604.243 182.388 522.609 186.318 478.195C190.087 435.595 213.119 397.831 237.748 359.311C269.311 309.945 277.909 233.673 349.635 222.765C423.419 211.544 471.261 281.916 532.698 314.454C573.539 336.084 613.367 354.791 648.807 381.212C692.903 414.088 764.468 440.29 763.926 486.844C763.385 533.331 677.746 550.576 646.366 590.714C607.745 640.116 629.756 719.729 561.553 745.706C495.499 770.864 451.273 696.379 386 670.107Z" fill="url(#paint0_linear_28_423)" fill-opacity="0.3"/>
<path fill-rule="evenodd" clip-rule="evenodd" d="M473 634.974C420.186 620.345 356.321 621.548 322.5 587.882C291.069 556.595 292.243 552.647 288.425 513.626C284.762 476.198 298.656 441.226 313.817 405.45C333.248 359.602 328.3 292.422 388.962 276.393C451.364 259.905 504.481 316.809 563.268 339.538C602.346 354.649 640.068 367.306 675.225 387.079C718.971 411.681 785.541 427.974 792.657 468.548C799.763 509.066 728.023 531.878 707.249 569.677C681.681 616.201 713.818 683.501 658.679 712.326C605.279 740.243 534.104 651.9 473 634.974Z" fill="url(#paint1_linear_28_423)" fill-opacity="0.4"/>
<path fill-rule="evenodd" clip-rule="evenodd" d="M510.5 571.064C466.721 547.621 354.841 551.303 335 513.88C316.561 479.102 428.364 487.052 438 450.343C447.243 415.133 423.953 415.45 450 385.31C483.382 346.684 524.646 388.664 586 385.31C649.114 381.86 643.736 299.009 699.14 312.544C760.702 327.583 673.381 411.653 699.14 436.514C731.19 467.448 874.325 435.987 867.206 474.75C860.098 513.46 786.239 520.982 754.332 551.932C715.062 590.023 722.01 658.15 661.434 674.348C602.769 690.034 561.149 598.188 510.5 571.064Z" fill="url(#paint2_linear_28_423)" fill-opacity="0.6"/>
</g>
<defs>
<linearGradient id="paint0_linear_28_423" x1="739.928" y1="400.366" x2="483.688" y2="763.345" gradientUnits="userSpaceOnUse">
<stop stop-color="#9EE6F7" stop-opacity="0"/>
<stop offset="1" stop-color="#9EE6F7" stop-opacity="0.46"/>
</linearGradient>
<linearGradient id="paint1_linear_28_423" x1="757.67" y1="395.453" x2="581.043" y2="728.013" gradientUnits="userSpaceOnUse">
<stop stop-color="#9EE6F7" stop-opacity="0"/>
<stop offset="1" stop-color="#9EE6F7" stop-opacity="0.46"/>
</linearGradient>
<linearGradient id="paint2_linear_28_423" x1="859.586" y1="400.741" x2="598.452" y2="686.884" gradientUnits="userSpaceOnUse">
<stop stop-color="#005AE2"/>
<stop offset="1" stop-color="#73E6FF" stop-opacity="0.38"/>
</linearGradient>
</defs>
</svg>
