<svg width="80" height="80" viewBox="0 0 80 80" fill="none" xmlns="http://www.w3.org/2000/svg">
<path d="M50 23.3335L60 23.3335C62.1887 23.3335 64.356 23.7646 66.3781 24.6022C68.4002 25.4397 70.2375 26.6674 71.7852 28.215C73.3328 29.7627 74.5605 31.6 75.398 33.6221C76.2356 35.6442 76.6667 37.8115 76.6667 40.0002C76.6667 42.1889 76.2356 44.3561 75.398 46.3782C74.5605 48.4003 73.3328 50.2376 71.7852 51.7853C70.2375 53.3329 68.4002 54.5606 66.3781 55.3982C64.356 56.2357 62.1887 56.6668 60 56.6668H50M30 56.6668H20C17.8113 56.6668 15.6441 56.2357 13.622 55.3982C11.5999 54.5606 9.76257 53.3329 8.21493 51.7853C5.08932 48.6597 3.33337 44.4204 3.33337 40.0002C3.33337 35.5799 5.08932 31.3407 8.21493 28.215C11.3405 25.0894 15.5798 23.3335 20 23.3335H30" stroke="#141414" stroke-width="2" stroke-linecap="round" stroke-linejoin="round"/>
<path d="M26.6666 40H53.3333" stroke="#141414" stroke-width="2" stroke-linecap="round" stroke-linejoin="round"/>
</svg>
