<svg width="17" height="17" viewBox="0 0 17 17" fill="none" xmlns="http://www.w3.org/2000/svg">
<path d="M5.45887 4.31594C5.43991 4.54135 5.11191 4.59835 5.00642 4.39456L4.43834 3.29742C4.4016 3.22633 4.32675 3.17883 4.24209 3.17268L2.93485 3.07785C2.692 3.06025 2.63061 2.75577 2.85016 2.65782L4.03196 2.13049C4.10849 2.09633 4.15977 2.02691 4.16632 1.94829L4.26849 0.734696C4.28745 0.509285 4.61545 0.452291 4.72095 0.656077L5.28902 1.75321C5.32576 1.8243 5.40052 1.87183 5.48527 1.87796L6.79252 1.97279C7.03536 1.99039 7.09675 2.29487 6.8772 2.39282L5.6954 2.92015C5.61878 2.95432 5.56759 3.02373 5.56104 3.10234L5.45887 4.31594Z" fill="white"/>
<path d="M1.70593 5.1442C1.67428 5.25336 1.50743 5.25336 1.47578 5.1442L1.30531 4.55649C1.29429 4.51841 1.26221 4.48867 1.22122 4.47842L0.588148 4.32018C0.470544 4.29079 0.470544 4.13591 0.588148 4.10652L1.22122 3.94828C1.26221 3.93802 1.29429 3.90828 1.30531 3.87021L1.47578 3.28249C1.50743 3.17333 1.67428 3.17333 1.70593 3.28249L1.8764 3.87021C1.88741 3.90828 1.91945 3.93802 1.96049 3.94828L2.59356 4.10652C2.71116 4.13591 2.71116 4.29079 2.59356 4.32018L1.96049 4.47842C1.91945 4.48867 1.88741 4.51841 1.8764 4.55649L1.70593 5.1442Z" fill="white"/>
<path d="M3.88782 8.52018C3.85616 8.62934 3.68931 8.62934 3.65766 8.52018L3.48719 7.93246C3.47618 7.89439 3.4441 7.86465 3.4031 7.85439L2.77003 7.69615C2.65243 7.66676 2.65243 7.51188 2.77003 7.48249L3.4031 7.32425C3.4441 7.314 3.47618 7.28426 3.48719 7.24618L3.65766 6.65847C3.68931 6.5493 3.85616 6.5493 3.88782 6.65847L4.05829 7.24618C4.0693 7.28426 4.10133 7.314 4.14238 7.32425L4.77544 7.48249C4.89305 7.51188 4.89305 7.66676 4.77544 7.69615L4.14238 7.85439C4.10133 7.86465 4.0693 7.89439 4.05829 7.93246L3.88782 8.52018Z" fill="white"/>
<path d="M2.03121 7.19688C2.01011 7.26966 1.89887 7.26966 1.87777 7.19688L1.76412 6.80507C1.75678 6.77969 1.7354 6.75986 1.70806 6.75303L1.28602 6.64753C1.20762 6.62794 1.20762 6.52469 1.28602 6.50509L1.70806 6.3996C1.7354 6.39276 1.75678 6.37294 1.76412 6.34755L1.87777 5.95574C1.89887 5.88297 2.01011 5.88297 2.03121 5.95574L2.14486 6.34755C2.1522 6.37294 2.17355 6.39276 2.20092 6.3996L2.62296 6.50509C2.70136 6.52469 2.70136 6.62794 2.62296 6.64753L2.20092 6.75303C2.17355 6.75986 2.1522 6.77969 2.14486 6.80507L2.03121 7.19688Z" fill="white"/>
<path d="M7.12215 5.84679C7.10105 5.91956 6.98982 5.91956 6.96871 5.84679L6.85507 5.45498C6.84773 5.42959 6.82634 5.40976 6.79901 5.40293L6.37696 5.29744C6.29856 5.27784 6.29856 5.17459 6.37696 5.155L6.79901 5.0495C6.82634 5.04267 6.84773 5.02284 6.85507 4.99746L6.96871 4.60564C6.98982 4.53287 7.10105 4.53287 7.12215 4.60564L7.2358 4.99746C7.24314 5.02284 7.2645 5.04267 7.29186 5.0495L7.7139 5.155C7.79231 5.17459 7.79231 5.27784 7.7139 5.29744L7.29186 5.40293C7.2645 5.40976 7.24314 5.42959 7.2358 5.45498L7.12215 5.84679Z" fill="white"/>
<path d="M14.3182 14.0029L13.5909 14.6781M4.15777 5.04216L15.9624 15.0876C16.2555 15.337 16.2654 15.7628 15.9843 16.0238V16.0238C15.7043 16.2837 15.2496 16.2776 14.9805 16.0079C10.9047 11.923 3.72842 4.70735 4.15777 5.04216Z" stroke="white"/>
</svg>
