<svg width="17" height="17" viewBox="0 0 17 17" fill="none" xmlns="http://www.w3.org/2000/svg">
<path d="M5.45887 3.81594C5.43991 4.04135 5.11191 4.09835 5.00642 3.89456L4.43834 2.79742C4.4016 2.72633 4.32675 2.67883 4.24209 2.67268L2.93485 2.57785C2.692 2.56025 2.63061 2.25577 2.85016 2.15782L4.03196 1.63049C4.10849 1.59633 4.15977 1.52691 4.16632 1.44829L4.26849 0.234696C4.28745 0.00928524 4.61545 -0.0477088 4.72095 0.156077L5.28902 1.25321C5.32576 1.3243 5.40052 1.37182 5.48527 1.37796L6.79252 1.47279C7.03536 1.49039 7.09675 1.79487 6.8772 1.89282L5.6954 2.42015C5.61878 2.45432 5.56759 2.52373 5.56104 2.60234L5.45887 3.81594Z" fill="#4991FF"/>
<path d="M1.70593 4.6442C1.67428 4.75336 1.50743 4.75336 1.47578 4.6442L1.30531 4.05649C1.29429 4.01841 1.26221 3.98867 1.22122 3.97842L0.588148 3.82018C0.470544 3.79079 0.470544 3.63591 0.588148 3.60652L1.22122 3.44828C1.26221 3.43802 1.29429 3.40828 1.30531 3.37021L1.47578 2.78249C1.50743 2.67333 1.67428 2.67333 1.70593 2.78249L1.8764 3.37021C1.88741 3.40828 1.91945 3.43802 1.96049 3.44828L2.59356 3.60652C2.71116 3.63591 2.71116 3.79079 2.59356 3.82018L1.96049 3.97842C1.91945 3.98867 1.88741 4.01841 1.8764 4.05649L1.70593 4.6442Z" fill="#4991FF"/>
<path d="M3.88782 8.02018C3.85616 8.12934 3.68931 8.12934 3.65766 8.02018L3.48719 7.43246C3.47618 7.39439 3.4441 7.36465 3.4031 7.35439L2.77003 7.19615C2.65243 7.16676 2.65243 7.01188 2.77003 6.98249L3.4031 6.82425C3.4441 6.814 3.47618 6.78426 3.48719 6.74618L3.65766 6.15847C3.68931 6.0493 3.85616 6.0493 3.88782 6.15847L4.05829 6.74618C4.0693 6.78426 4.10133 6.814 4.14238 6.82425L4.77544 6.98249C4.89305 7.01188 4.89305 7.16676 4.77544 7.19615L4.14238 7.35439C4.10133 7.36465 4.0693 7.39439 4.05829 7.43246L3.88782 8.02018Z" fill="#4991FF"/>
<path d="M2.03121 6.69688C2.01011 6.76966 1.89887 6.76966 1.87777 6.69688L1.76412 6.30507C1.75678 6.27969 1.7354 6.25986 1.70806 6.25303L1.28602 6.14753C1.20762 6.12794 1.20762 6.02469 1.28602 6.00509L1.70806 5.8996C1.7354 5.89276 1.75678 5.87294 1.76412 5.84755L1.87777 5.45574C1.89887 5.38297 2.01011 5.38297 2.03121 5.45574L2.14486 5.84755C2.1522 5.87294 2.17355 5.89276 2.20092 5.8996L2.62296 6.00509C2.70136 6.02469 2.70136 6.12794 2.62296 6.14753L2.20092 6.25303C2.17355 6.25986 2.1522 6.27969 2.14486 6.30507L2.03121 6.69688Z" fill="#4991FF"/>
<path d="M7.12215 5.34679C7.10105 5.41956 6.98982 5.41956 6.96871 5.34679L6.85507 4.95498C6.84773 4.92959 6.82634 4.90976 6.79901 4.90293L6.37696 4.79744C6.29856 4.77784 6.29856 4.67459 6.37696 4.655L6.79901 4.5495C6.82634 4.54267 6.84773 4.52284 6.85507 4.49746L6.96871 4.10564C6.98982 4.03287 7.10105 4.03287 7.12215 4.10564L7.2358 4.49746C7.24314 4.52284 7.2645 4.54267 7.29186 4.5495L7.7139 4.655C7.79231 4.67459 7.79231 4.77784 7.7139 4.79744L7.29186 4.90293C7.2645 4.90976 7.24314 4.92959 7.2358 4.95498L7.12215 5.34679Z" fill="#4991FF"/>
<path d="M14.3182 13.5029L13.5909 14.1781M4.15777 4.54216L15.9624 14.5876C16.2555 14.837 16.2654 15.2628 15.9843 15.5238V15.5238C15.7043 15.7837 15.2496 15.7776 14.9805 15.5079C10.9047 11.423 3.72842 4.20735 4.15777 4.54216Z" stroke="#4991FF"/>
</svg>
