<svg width="17" height="17" viewBox="0 0 17 17" fill="none" xmlns="http://www.w3.org/2000/svg">
<path d="M4.95887 3.81594C4.93991 4.04135 4.61191 4.09835 4.50642 3.89456L3.93834 2.79742C3.9016 2.72633 3.82675 2.67883 3.74209 2.67268L2.43485 2.57785C2.192 2.56025 2.13061 2.25577 2.35016 2.15782L3.53196 1.63049C3.60849 1.59633 3.65977 1.52691 3.66632 1.44829L3.76849 0.234696C3.78745 0.00928524 4.11545 -0.0477088 4.22095 0.156077L4.78902 1.25321C4.82576 1.3243 4.90052 1.37182 4.98527 1.37796L6.29252 1.47279C6.53536 1.49039 6.59675 1.79487 6.3772 1.89282L5.1954 2.42015C5.11878 2.45432 5.06759 2.52373 5.06104 2.60234L4.95887 3.81594Z" fill="white"/>
<path d="M1.20593 4.64371C1.17428 4.75288 1.00743 4.75288 0.975776 4.64371L0.805306 4.056C0.794294 4.01792 0.762212 3.98818 0.721216 3.97793L0.0881478 3.81969C-0.0294558 3.7903 -0.0294558 3.63542 0.0881478 3.60603L0.721216 3.44779C0.762212 3.43753 0.794294 3.40779 0.805306 3.36972L0.975776 2.782C1.00743 2.67284 1.17428 2.67284 1.20593 2.782L1.3764 3.36972C1.38741 3.40779 1.41945 3.43753 1.46049 3.44779L2.09356 3.60603C2.21116 3.63542 2.21116 3.7903 2.09356 3.81969L1.46049 3.97793C1.41945 3.98818 1.38741 4.01792 1.3764 4.056L1.20593 4.64371Z" fill="white"/>
<path d="M3.38782 8.01969C3.35616 8.12885 3.18931 8.12885 3.15766 8.01969L2.98719 7.43197C2.97618 7.3939 2.9441 7.36416 2.9031 7.35391L2.27003 7.19566C2.15243 7.16628 2.15243 7.01139 2.27003 6.982L2.9031 6.82376C2.9441 6.81351 2.97618 6.78377 2.98719 6.74569L3.15766 6.15798C3.18931 6.04882 3.35616 6.04882 3.38782 6.15798L3.55829 6.74569C3.5693 6.78377 3.60133 6.81351 3.64238 6.82376L4.27544 6.982C4.39305 7.01139 4.39305 7.16628 4.27544 7.19566L3.64238 7.35391C3.60133 7.36416 3.5693 7.3939 3.55829 7.43197L3.38782 8.01969Z" fill="white"/>
<path d="M1.53121 6.69737C1.51011 6.77015 1.39887 6.77015 1.37777 6.69737L1.26412 6.30556C1.25678 6.28018 1.2354 6.26035 1.20806 6.25351L0.786019 6.14802C0.707617 6.12843 0.707617 6.02517 0.786019 6.00558L1.20806 5.90009C1.2354 5.89325 1.25678 5.87343 1.26412 5.84804L1.37777 5.45623C1.39887 5.38346 1.51011 5.38346 1.53121 5.45623L1.64486 5.84804C1.6522 5.87343 1.67355 5.89325 1.70092 5.90009L2.12296 6.00558C2.20136 6.02517 2.20136 6.12843 2.12296 6.14802L1.70092 6.25351C1.67355 6.26035 1.6522 6.28018 1.64486 6.30556L1.53121 6.69737Z" fill="white"/>
<path d="M6.62215 5.34679C6.60105 5.41956 6.48982 5.41956 6.46871 5.34679L6.35507 4.95498C6.34773 4.92959 6.32634 4.90976 6.29901 4.90293L5.87696 4.79744C5.79856 4.77784 5.79856 4.67459 5.87696 4.655L6.29901 4.5495C6.32634 4.54267 6.34773 4.52284 6.35507 4.49746L6.46871 4.10564C6.48982 4.03287 6.60105 4.03287 6.62215 4.10564L6.7358 4.49746C6.74314 4.52284 6.7645 4.54267 6.79186 4.5495L7.2139 4.655C7.29231 4.67459 7.29231 4.77784 7.2139 4.79744L6.79186 4.90293C6.7645 4.90976 6.74314 4.92959 6.7358 4.95498L6.62215 5.34679Z" fill="white"/>
<path d="M13.8182 13.5029L13.0909 14.1781M3.65777 4.54216L15.4624 14.5876C15.7555 14.837 15.7654 15.2628 15.4843 15.5238V15.5238C15.2043 15.7837 14.7496 15.7776 14.4805 15.5079C10.4047 11.423 3.22842 4.20735 3.65777 4.54216Z" stroke="white"/>
</svg>
