<svg width="17" height="17" viewBox="0 0 17 17" fill="none" xmlns="http://www.w3.org/2000/svg">
<path d="M5.45887 3.81619C5.43991 4.0416 5.11191 4.09859 5.00642 3.89481L4.43834 2.79767C4.4016 2.72658 4.32675 2.67907 4.24209 2.67292L2.93485 2.57809C2.692 2.56049 2.63061 2.25601 2.85016 2.15807L4.03196 1.63074C4.10849 1.59658 4.15977 1.52715 4.16632 1.44854L4.26849 0.23494C4.28745 0.00952938 4.61545 -0.0474646 4.72095 0.156321L5.28902 1.25346C5.32576 1.32455 5.40052 1.37207 5.48527 1.37821L6.79252 1.47303C7.03536 1.49064 7.09675 1.79511 6.8772 1.89306L5.6954 2.42039C5.61878 2.45457 5.56759 2.52397 5.56104 2.60259L5.45887 3.81619Z" fill="white"/>
<path d="M1.70593 4.6442C1.67428 4.75336 1.50743 4.75336 1.47578 4.6442L1.30531 4.05649C1.29429 4.01841 1.26221 3.98867 1.22122 3.97842L0.588148 3.82018C0.470544 3.79079 0.470544 3.63591 0.588148 3.60652L1.22122 3.44828C1.26221 3.43802 1.29429 3.40828 1.30531 3.37021L1.47578 2.78249C1.50743 2.67333 1.67428 2.67333 1.70593 2.78249L1.8764 3.37021C1.88741 3.40828 1.91945 3.43802 1.96049 3.44828L2.59356 3.60652C2.71116 3.63591 2.71116 3.79079 2.59356 3.82018L1.96049 3.97842C1.91945 3.98867 1.88741 4.01841 1.8764 4.05649L1.70593 4.6442Z" fill="white"/>
<path d="M3.88782 8.01993C3.85616 8.1291 3.68931 8.1291 3.65766 8.01993L3.48719 7.43222C3.47618 7.39414 3.4441 7.3644 3.4031 7.35415L2.77003 7.19591C2.65243 7.16652 2.65243 7.01164 2.77003 6.98225L3.4031 6.82401C3.4441 6.81375 3.47618 6.78402 3.48719 6.74594L3.65766 6.15822C3.68931 6.04906 3.85616 6.04906 3.88782 6.15822L4.05829 6.74594C4.0693 6.78402 4.10133 6.81375 4.14238 6.82401L4.77544 6.98225C4.89305 7.01164 4.89305 7.16652 4.77544 7.19591L4.14238 7.35415C4.10133 7.3644 4.0693 7.39414 4.05829 7.43222L3.88782 8.01993Z" fill="white"/>
<path d="M2.03121 6.69688C2.01011 6.76966 1.89887 6.76966 1.87777 6.69688L1.76412 6.30507C1.75678 6.27969 1.7354 6.25986 1.70806 6.25303L1.28602 6.14753C1.20762 6.12794 1.20762 6.02469 1.28602 6.00509L1.70806 5.8996C1.7354 5.89276 1.75678 5.87294 1.76412 5.84755L1.87777 5.45574C1.89887 5.38297 2.01011 5.38297 2.03121 5.45574L2.14486 5.84755C2.1522 5.87294 2.17355 5.89276 2.20092 5.8996L2.62296 6.00509C2.70136 6.02469 2.70136 6.12794 2.62296 6.14753L2.20092 6.25303C2.17355 6.25986 2.1522 6.27969 2.14486 6.30507L2.03121 6.69688Z" fill="white"/>
<path d="M7.12215 5.34654C7.10105 5.41932 6.98982 5.41932 6.96871 5.34654L6.85507 4.95473C6.84773 4.92935 6.82634 4.90952 6.79901 4.90268L6.37696 4.79719C6.29856 4.7776 6.29856 4.67434 6.37696 4.65475L6.79901 4.54926C6.82634 4.54242 6.84773 4.5226 6.85507 4.49721L6.96871 4.1054C6.98982 4.03263 7.10105 4.03263 7.12215 4.1054L7.2358 4.49721C7.24314 4.5226 7.2645 4.54242 7.29186 4.54926L7.7139 4.65475C7.79231 4.67434 7.79231 4.7776 7.7139 4.79719L7.29186 4.90268C7.2645 4.90952 7.24314 4.92935 7.2358 4.95473L7.12215 5.34654Z" fill="white"/>
<path d="M14.3182 13.5032L13.5909 14.1783M4.15777 4.5424L15.9624 14.5878C16.2555 14.8372 16.2654 15.2631 15.9843 15.524V15.524C15.7043 15.784 15.2496 15.7779 14.9805 15.5081C10.9047 11.4232 3.72842 4.20759 4.15777 4.5424Z" stroke="white"/>
</svg>
